<?xml version="1.0" encoding="UTF-8" standalone="no"?>
<!-- Created with Inkscape (http://www.inkscape.org/) -->
<svg
   xmlns:dc="http://purl.org/dc/elements/1.1/"
   xmlns:cc="http://creativecommons.org/ns#"
   xmlns:rdf="http://www.w3.org/1999/02/22-rdf-syntax-ns#"
   xmlns:svg="http://www.w3.org/2000/svg"
   xmlns="http://www.w3.org/2000/svg"
   xmlns:sodipodi="http://sodipodi.sourceforge.net/DTD/sodipodi-0.dtd"
   xmlns:inkscape="http://www.inkscape.org/namespaces/inkscape"
   id="svg2"
   sodipodi:version="0.32"
   inkscape:version="0.46"
   width="366"
   height="256"
   version="1.0"
   sodipodi:docname="Flag of Maricá.svg"
   inkscape:output_extension="org.inkscape.output.svg.inkscape">
  <metadata
     id="metadata7">
    <rdf:RDF>
      <cc:Work
         rdf:about="">
        <dc:format>image/svg+xml</dc:format>
        <dc:type
           rdf:resource="http://purl.org/dc/dcmitype/StillImage" />
      </cc:Work>
    </rdf:RDF>
  </metadata>
  <defs
     id="defs5">
    <inkscape:perspective
       sodipodi:type="inkscape:persp3d"
       inkscape:vp_x="0 : 526.18109 : 1"
       inkscape:vp_y="0 : 1000 : 0"
       inkscape:vp_z="744.09448 : 526.18109 : 1"
       inkscape:persp3d-origin="372.04724 : 350.78739 : 1"
       id="perspective9" />
    <inkscape:perspective
       id="perspective5071"
       inkscape:persp3d-origin="0.5 : 91.666667 : 1"
       inkscape:vp_z="1 : 137.5 : 1"
       inkscape:vp_y="0 : 1000 : 0"
       inkscape:vp_x="0 : 137.5 : 1"
       sodipodi:type="inkscape:persp3d" />
  </defs>
  <sodipodi:namedview
     inkscape:window-height="719"
     inkscape:window-width="1024"
     inkscape:pageshadow="2"
     inkscape:pageopacity="0.0"
     guidetolerance="10.0"
     gridtolerance="10.0"
     objecttolerance="10.0"
     borderopacity="1.0"
     bordercolor="#666666"
     pagecolor="#ffffff"
     id="base"
     showgrid="false"
     inkscape:zoom="1.3976407"
     inkscape:cx="231.0152"
     inkscape:cy="99.380342"
     inkscape:window-x="-4"
     inkscape:window-y="-4"
     inkscape:current-layer="svg2" />
  <g
     id="g5853">
    <path
       id="rect2382"
       d="M 0,5.6843419e-14 L 366,5.6843419e-14 L 366,256 L 0,256 L 0,5.6843419e-14 z"
       style="fill:#d40000;fill-opacity:1;fill-rule:nonzero;stroke:none;stroke-opacity:1" />
    <path
       id="rect2385"
       d="M 28.524818,-32.418959 L 390.23684,245.06992 L 340.62342,291.89897 L -21.088591,14.410091 L 28.524818,-32.418959 z"
       style="fill:#ffffff;fill-opacity:1;fill-rule:nonzero;stroke:none;stroke-opacity:1" />
    <polygon
       style="fill:#000080;stroke:none;stroke-width:87.88064574999999900"
       transform="matrix(0.1708849,-0.1626249,0.1617852,0.1695516,9.4121458,35.367446)"
       color="blue"
       points="150,25 179,111 269,111 197,165 223,251 150,200 77,251 103,165 31,111 121,111 150,25 "
       id="polygon5064" />
    <polygon
       id="polygon5847"
       points="150,25 179,111 269,111 197,165 223,251 150,200 77,251 103,165 31,111 121,111 150,25 "
       color="blue"
       transform="matrix(0.1708849,-0.1626249,0.1617852,0.1695516,248.38629,219.24875)"
       style="fill:#000080;stroke:none;stroke-width:87.88064575" />
    <polygon
       style="fill:#000080;stroke:none;stroke-width:87.88064575"
       transform="matrix(0.1708849,-0.1626249,0.1617852,0.1695516,170.39772,157.71649)"
       color="blue"
       points="150,25 179,111 269,111 197,165 223,251 150,200 77,251 103,165 31,111 121,111 150,25 "
       id="polygon5849" />
    <polygon
       id="polygon5851"
       points="150,25 179,111 269,111 197,165 223,251 150,200 77,251 103,165 31,111 121,111 150,25 "
       color="blue"
       transform="matrix(0.1708849,-0.1626249,0.1617852,0.1695516,88.116201,96.184226)"
       style="fill:#000080;stroke:none;stroke-width:87.88064575" />
  </g>
</svg>
